# xmcd CD database file
#
# Track frame offsets:
#	150
#	22005
#	37653
#	54745
#	71642
#	92902
#	109698
#	124274
#	140432
#	164082
#	179830
#	195693
#	213326
#	230103
#
# Disc length: 3311 seconds
#
# Revision: 0
# Processed by: cddbd v1.5.1PL2 Copyright (c) Steve Scherf et al.
# Submitted via: NeoAudio 9.9.9
#
DISCID=d60ced0e
DTITLE=get up and dance special 45 - get up and dance special 45
DYEAR=1900
DGENRE=Country
TTITLE0=Let it Roll - Elkie
TTITLE1=Banjo Bango - Ryan Shupe and the rubberband
TTITLE2=Beep - The pussycat Dolls
TTITLE3=Paint Me a birmingham - Tray lawrence
TTITLE4=Sorry and Lonely - Madonna
TTITLE5=Trashed - Jason Mccoy
TTITLE6=Mambolina - Playa
TTITLE7=Red Dress - Sugababes
TTITLE8=Champagne on ice - Tammy Wynette and Elton John
TTITLE9=Clap your hands - Dyana and Matalaya Syenchukav
TTITLE10=Call the Cops  - Mario
TTITLE11=Flava - Blaque Ivory
TTITLE12=Freaky Girl - Shaggy
TTITLE13=Wath Me Cha Cha - Girls Aloud
EXTD=
EXTT0=
EXTT1=
EXTT2=
EXTT3=
EXTT4=
EXTT5=
EXTT6=
EXTT7=
EXTT8=
EXTT9=
EXTT10=
EXTT11=
EXTT12=
EXTT13=
PLAYORDER=
